<svg xmlns="http://www.w3.org/2000/svg" version="1.1" viewBox="-0.17 59.47 254.07 35.25"><path d="M 7.270 66.428 C 0.113 69.661, -2.573 81.881, 2.287 89.102 C 6.319 95.094, 15.738 96.477, 24.396 92.348 L 28 90.630 28 83.769 L 28 76.909 21.250 77.204 L 14.500 77.500 14.187 80.750 C 13.895 83.778, 14.083 84, 16.937 84 C 20.635 84, 20.952 85.688, 17.500 87 C 14.511 88.136, 10.549 86.874, 9.636 84.495 C 8.338 81.112, 9.003 75.997, 11 74 C 13.426 71.574, 14.386 71.524, 17.962 73.636 C 20.857 75.347, 28 74.873, 28 72.970 C 28 72.454, 26.717 70.596, 25.149 68.840 C 22.655 66.049, 21.558 65.606, 16.399 65.309 C 12.685 65.094, 9.303 65.509, 7.270 66.428 M 35.500 74.195 C 33.214 75.491, 32.037 76.993, 32.015 78.641 C 31.992 80.346, 39.231 80.912, 40.815 79.328 C 42.400 77.743, 43.656 77.634, 44.504 79.007 C 45.178 80.098, 44.647 80.352, 38.295 81.977 C 35.982 82.569, 33.395 83.748, 32.545 84.598 C 28.319 88.824, 33.480 95.708, 39.989 94.525 C 41.920 94.174, 45.975 93.932, 49 93.988 L 54.500 94.088 54 85.454 C 53.563 77.914, 53.201 76.578, 51.139 74.910 C 48.432 72.720, 38.872 72.283, 35.500 74.195 M 60.223 74.557 C 59 75.413, 58 76.937, 58 77.943 C 58 80.395, 63.669 81.263, 66.701 79.277 C 67.917 78.480, 69.389 78.122, 69.972 78.483 C 71.804 79.615, 70.147 80.801, 65.745 81.509 C 59.760 82.472, 57 84.468, 57 87.832 C 57 92.462, 59.159 94.411, 64.131 94.272 C 66.534 94.204, 71.134 94.129, 74.354 94.105 L 80.208 94.061 79.854 85.442 C 79.541 77.819, 79.227 76.602, 77.139 74.912 C 74.100 72.451, 63.545 72.230, 60.223 74.557 M 83 83.500 L 83 94 87.500 94 L 92 94 92 87.469 C 92 82.402, 92.359 80.799, 93.601 80.323 C 95.958 79.419, 96.967 81.784, 96.985 88.250 L 97 94 101 94 L 105 94 105 85.500 C 105 78.333, 104.686 76.686, 103 75 C 100.733 72.733, 95.132 72.310, 93.075 74.250 C 92.015 75.250, 91.658 75.250, 91.292 74.250 C 91.032 73.541, 89.139 73, 86.917 73 L 83 73 83 83.500 M 109 81.929 C 109 88.708, 109.378 91.235, 110.570 92.427 C 113.008 94.865, 116.606 95.343, 119.953 93.673 C 121.629 92.837, 123 92.569, 123 93.077 C 123 93.584, 124.816 94, 127.035 94 L 131.070 94 130.785 83.750 L 130.500 73.500 126.250 73.193 L 122 72.885 122 79.320 C 122 83.681, 121.539 86.138, 120.570 86.942 C 118.446 88.705, 117 85.311, 117 78.566 L 117 73 113 73 L 109 73 109 81.929 M 42.250 86.031 C 39.478 87.145, 39.300 89, 41.965 89 C 43.045 89, 44.411 88.100, 45 87 C 46.165 84.823, 45.681 84.652, 42.250 86.031 M 68.074 85.940 C 66.740 86.279, 65.465 87.105, 65.241 87.778 C 64.630 89.611, 69.949 89.296, 70.655 87.457 C 71.427 85.446, 71.005 85.198, 68.074 85.940" stroke="none" fill="#d9d9d9" fill-rule="evenodd"/><path d="M 181.500 60.511 C 176.721 62.200, 174.292 64.926, 173.419 69.582 C 172.687 73.484, 174.165 76, 177.190 76 C 178.685 76, 178.987 75.534, 178.495 73.984 C 177.674 71.399, 179.655 65.346, 181.561 64.615 C 182.652 64.196, 182.896 64.619, 182.519 66.277 C 180.846 73.626, 177 92.307, 177 93.080 C 177 93.586, 178.558 94, 180.461 94 C 184.223 94, 184.576 93.322, 186.710 82 C 187.493 77.844, 187.822 77.462, 191.018 77 C 195.784 76.311, 196.554 73, 191.948 73 C 188.900 73, 188.779 72.854, 189.375 69.875 C 189.719 68.156, 190 66.336, 190 65.830 C 190 65.324, 191.533 65.197, 193.406 65.548 C 196.105 66.055, 197.261 65.739, 198.969 64.031 C 200.155 62.845, 200.977 61.431, 200.796 60.888 C 200.239 59.218, 185.950 58.939, 181.500 60.511 M 248.414 69.674 C 246.988 69.963, 245.594 71.868, 244.005 75.701 C 241.304 82.219, 237.064 89, 235.692 89 C 235.133 89, 235.026 87.447, 235.434 85.250 C 237.448 74.395, 237.387 73.300, 234.668 71.518 C 232.951 70.393, 231.335 70.085, 229.799 70.589 C 228.535 71.004, 225.839 71.233, 223.808 71.099 C 220.303 70.868, 220.066 71.049, 219.119 74.678 C 218.571 76.780, 217.824 80.164, 217.460 82.198 C 216.704 86.413, 214.541 89.874, 213.384 88.717 C 212.635 87.968, 214.255 76.105, 215.576 72.663 C 216.117 71.252, 215.402 70.972, 210.857 70.817 C 202.255 70.523, 200.858 70.787, 198.231 73.207 C 193.052 77.979, 191.098 88.969, 194.829 92.345 C 197.140 94.436, 202.350 94.488, 204.052 92.437 C 205.199 91.055, 205.447 91.048, 206.190 92.375 C 206.825 93.509, 208.948 93.882, 214.851 93.895 L 222.671 93.912 223.860 87.456 C 225.447 78.842, 226.621 76, 228.592 76 C 229.809 76, 230.075 76.581, 229.620 78.250 C 228.082 83.889, 227.765 91.012, 228.987 92.484 C 230.487 94.292, 236.106 94.494, 237.800 92.800 C 238.733 91.867, 239.267 91.867, 240.200 92.800 C 242.137 94.737, 248.437 94.231, 251.399 91.901 C 254.017 89.842, 254.062 89.607, 253.784 79.662 C 253.484 68.936, 253.344 68.677, 248.414 69.674 M 203.423 76.477 C 201.483 79.439, 199.946 85.695, 200.685 87.621 C 202.167 91.482, 205.607 86.588, 206.569 79.250 C 207.338 73.390, 206.138 72.333, 203.423 76.477 M 145.707 77.016 C 142.210 79.767, 140.454 85.266, 141.932 88.837 C 143.463 92.533, 146.691 94.340, 151.430 94.154 C 156.059 93.973, 160.554 90.308, 161.515 85.932 C 162.229 82.682, 159.925 77.565, 157.055 76.030 C 153.938 74.362, 148.478 74.836, 145.707 77.016 M 244.503 81.991 C 244.155 83.086, 244.129 84.400, 244.445 84.910 C 244.760 85.421, 244.286 86.571, 243.390 87.467 C 241.406 89.451, 242.438 90.841, 244.798 89.363 C 245.850 88.704, 246.617 86.712, 246.807 84.148 C 247.125 79.871, 245.622 78.465, 244.503 81.991" stroke="none" fill="#ff4c29" fill-rule="evenodd"/></svg>